<?xml version="1.0" encoding="utf-8"?>
<!-- Generator: Adobe Illustrator 16.0.0, SVG Export Plug-In . SVG Version: 6.00 Build 0)  -->
<!DOCTYPE svg PUBLIC "-//W3C//DTD SVG 1.1//EN" "http://www.w3.org/Graphics/SVG/1.1/DTD/svg11.dtd">
<svg version="1.1" xmlns="http://www.w3.org/2000/svg" xmlns:xlink="http://www.w3.org/1999/xlink" x="0px" y="0px"
	 width="337.591px" height="346.787px" viewBox="0 0 337.591 346.787" enable-background="new 0 0 337.591 346.787"
	 xml:space="preserve">
<g id="Capa_1">
	<g>
		<path fill="#0055B8" d="M9.285,167.095c0-87.342,71.699-158.137,160.166-158.137c88.457,0,160.161,70.795,160.161,158.137
			c0,87.337-71.704,158.132-160.161,158.132C80.984,325.228,9.285,254.433,9.285,167.095z"/>
		<path fill-rule="evenodd" clip-rule="evenodd" fill="#E8531A" d="M51.09,167.095c0-66.242,53-119.937,118.361-119.937
			c65.352,0,118.352,53.695,118.352,119.937c0,66.238-53,119.933-118.352,119.933C104.089,287.028,51.09,233.333,51.09,167.095z"/>
		<polygon fill-rule="evenodd" clip-rule="evenodd" fill="#0055B8" points="277.354,219.014 61.556,219.014 169.879,47.296 		"/>
		<path fill-rule="evenodd" clip-rule="evenodd" fill="#FFFFFF" d="M44.899,221.633l-0.286-2.314
			c1.286-0.195,2.362-0.052,3.248,0.429c0.886,0.471,1.572,1.271,2.057,2.39c0.629,1.386,0.667,2.733,0.114,4.043
			c-0.552,1.31-1.638,2.324-3.286,3.066c-1.724,0.762-3.276,0.919-4.638,0.448c-1.372-0.471-2.367-1.428-3.005-2.886
			c-0.571-1.276-0.647-2.476-0.248-3.609c0.229-0.671,0.714-1.314,1.448-1.919l1.414,1.862c-0.486,0.357-0.791,0.805-0.933,1.333
			c-0.138,0.533-0.072,1.071,0.171,1.638c0.333,0.771,0.895,1.271,1.657,1.51c0.762,0.229,1.771,0.071,3.01-0.481
			c1.324-0.581,2.143-1.238,2.505-1.957c0.343-0.724,0.343-1.467,0-2.224c-0.238-0.562-0.638-0.962-1.162-1.209
			C46.414,221.514,45.728,221.466,44.899,221.633z"/>
		<path fill-rule="evenodd" clip-rule="evenodd" fill="#FFFFFF" d="M41.042,215.824c1.229-0.419,2.038-1.019,2.495-1.795
			c0.438-0.791,0.505-1.619,0.2-2.481c-0.295-0.872-0.857-1.471-1.676-1.814c-0.829-0.343-1.862-0.295-3.1,0.128
			c-1.238,0.429-2.066,1.014-2.495,1.767c-0.419,0.752-0.457,1.571-0.162,2.476c0.314,0.896,0.857,1.524,1.676,1.857
			C38.78,216.295,39.809,216.252,41.042,215.824z M41.89,218.038c-1.095,0.381-2.081,0.533-2.938,0.462
			c-0.638-0.048-1.238-0.219-1.829-0.491c-0.581-0.276-1.067-0.628-1.448-1.062c-0.504-0.571-0.924-1.295-1.209-2.176
			c-0.571-1.59-0.505-3.028,0.152-4.324c0.667-1.295,1.867-2.243,3.619-2.848c1.743-0.59,3.271-0.59,4.576,0.01
			c1.314,0.609,2.238,1.705,2.791,3.286c0.552,1.609,0.495,3.048-0.152,4.333C44.794,216.514,43.604,217.447,41.89,218.038z"/>
		<path fill-rule="evenodd" clip-rule="evenodd" fill="#FFFFFF" d="M37.066,203.305c1.248-0.314,2.124-0.838,2.619-1.576
			c0.514-0.748,0.657-1.557,0.428-2.448c-0.219-0.89-0.714-1.547-1.504-1.957c-0.791-0.414-1.819-0.462-3.114-0.133
			c-1.257,0.314-2.133,0.829-2.629,1.533c-0.485,0.714-0.6,1.538-0.381,2.457c0.238,0.915,0.743,1.581,1.505,1.991
			C34.761,203.581,35.78,203.619,37.066,203.305z M37.713,205.581c-1.133,0.286-2.124,0.352-2.971,0.209
			c-0.619-0.114-1.209-0.329-1.771-0.657c-0.562-0.319-1.01-0.714-1.362-1.176c-0.457-0.614-0.8-1.376-1.029-2.276
			c-0.409-1.633-0.229-3.062,0.543-4.29c0.771-1.229,2.067-2.072,3.857-2.519c1.8-0.448,3.305-0.314,4.562,0.405
			c1.252,0.724,2.09,1.895,2.481,3.514c0.419,1.652,0.238,3.081-0.524,4.305C40.737,204.314,39.476,205.152,37.713,205.581z"/>
		<path fill-rule="evenodd" clip-rule="evenodd" fill="#FFFFFF" d="M33.399,190.005l-0.229-1.686
			c-0.162-1.09-0.305-1.767-0.438-2.023c-0.124-0.262-0.324-0.458-0.571-0.572c-0.238-0.124-0.533-0.162-0.867-0.114
			c-0.391,0.057-0.676,0.195-0.886,0.434c-0.209,0.238-0.314,0.538-0.324,0.919c0,0.195,0.076,0.743,0.209,1.667l0.238,1.781
			L33.399,190.005z M40.228,191.381l-11.285,1.581l-0.667-4.8c-0.162-1.21-0.2-2.095-0.066-2.667
			c0.124-0.571,0.419-1.066,0.895-1.471c0.467-0.4,1.038-0.643,1.714-0.738c0.848-0.124,1.571,0.029,2.19,0.443
			c0.619,0.424,1.086,1.114,1.362,2.081c0.219-0.533,0.476-0.972,0.781-1.343c0.295-0.372,0.857-0.886,1.647-1.552l2.009-1.686
			l0.372,2.714l-2.229,1.991c-0.791,0.705-1.276,1.19-1.486,1.433c-0.181,0.252-0.314,0.5-0.362,0.757
			c-0.057,0.252-0.038,0.638,0.029,1.171l0.066,0.457l4.705-0.662L40.228,191.381z"/>
		<path fill-rule="evenodd" clip-rule="evenodd" fill="#FFFFFF" d="M29.152,178.109l7.514-0.528l-0.114-1.705
			c-0.048-0.643-0.124-1.095-0.2-1.372c-0.124-0.372-0.305-0.667-0.543-0.9c-0.238-0.219-0.619-0.396-1.152-0.51
			c-0.504-0.124-1.209-0.152-2.085-0.095c-0.876,0.067-1.552,0.19-2.01,0.381c-0.466,0.181-0.81,0.424-1.057,0.724
			c-0.238,0.286-0.39,0.657-0.447,1.09c-0.057,0.329-0.057,0.957,0.019,1.881L29.152,178.109z M27.38,180.543l-0.295-4.186
			c-0.066-0.948-0.038-1.667,0.076-2.176c0.133-0.671,0.448-1.276,0.915-1.781c0.476-0.509,1.066-0.905,1.771-1.209
			c0.705-0.305,1.6-0.485,2.657-0.562c0.943-0.057,1.752-0.005,2.438,0.181c0.857,0.219,1.562,0.581,2.105,1.076
			c0.419,0.367,0.752,0.886,1.019,1.543c0.19,0.495,0.324,1.167,0.391,2.014l0.295,4.305L27.38,180.543z"/>
		<polygon fill-rule="evenodd" clip-rule="evenodd" fill="#FFFFFF" points="38.285,168.067 26.904,167.862 26.952,165.562 
			38.333,165.752 		"/>
		<polygon fill-rule="evenodd" clip-rule="evenodd" fill="#FFFFFF" points="38.342,163.405 26.98,162.61 27.133,160.381 
			35.085,156.238 27.466,155.705 27.609,153.581 38.971,154.372 38.818,156.676 31.019,160.752 38.485,161.276 		"/>
		<path fill-rule="evenodd" clip-rule="evenodd" fill="#FFFFFF" d="M35.704,144.972l-4.419,0.915l3.924,2.171L35.704,144.972z
			 M40.823,141.515l-0.386,2.457l-2.714,0.567l-0.714,4.509l2.41,1.343l-0.372,2.41l-10.571-6.147l0.381-2.415L40.823,141.515z"/>
		<path fill-rule="evenodd" clip-rule="evenodd" fill="#FFFFFF" d="M32.656,135.534l7.324,1.814l0.4-1.652
			c0.162-0.624,0.238-1.076,0.229-1.372c0-0.381-0.076-0.724-0.229-1.01c-0.162-0.29-0.477-0.571-0.924-0.852
			c-0.448-0.281-1.114-0.519-1.972-0.729c-0.848-0.214-1.533-0.3-2.019-0.267c-0.495,0.038-0.914,0.157-1.229,0.362
			c-0.333,0.209-0.581,0.505-0.781,0.905c-0.152,0.291-0.324,0.886-0.562,1.8L32.656,135.534z M30.228,137.3l1.009-4.071
			c0.229-0.914,0.476-1.6,0.733-2.048c0.353-0.59,0.829-1.066,1.429-1.409c0.609-0.333,1.295-0.533,2.057-0.61
			c0.771-0.057,1.667,0.038,2.705,0.295c0.914,0.229,1.667,0.533,2.276,0.924c0.729,0.481,1.281,1.038,1.643,1.667
			c0.286,0.481,0.448,1.081,0.495,1.791c0.038,0.524-0.047,1.2-0.248,2.029l-1.047,4.19L30.228,137.3z"/>
		<path fill-rule="evenodd" clip-rule="evenodd" fill="#FFFFFF" d="M39.476,125.01c1.219,0.419,2.243,0.458,3.062,0.11
			c0.829-0.348,1.391-0.957,1.686-1.824c0.295-0.867,0.248-1.69-0.19-2.467c-0.438-0.767-1.276-1.367-2.534-1.8
			c-1.233-0.429-2.262-0.477-3.042-0.143c-0.8,0.343-1.353,0.948-1.657,1.848s-0.257,1.729,0.181,2.495
			C37.39,123.986,38.228,124.591,39.476,125.01z M38.78,127.277c-1.114-0.372-1.972-0.857-2.609-1.448
			c-0.458-0.429-0.829-0.938-1.124-1.505c-0.295-0.581-0.457-1.152-0.495-1.733c-0.057-0.771,0.066-1.595,0.371-2.476
			c0.543-1.59,1.477-2.686,2.791-3.295c1.314-0.619,2.857-0.619,4.605-0.014c1.752,0.6,2.943,1.538,3.609,2.824
			c0.657,1.291,0.724,2.714,0.171,4.305c-0.562,1.605-1.486,2.714-2.781,3.314C42.004,127.862,40.495,127.872,38.78,127.277z"/>
		<path fill-rule="evenodd" clip-rule="evenodd" fill="#FFFFFF" d="M43.661,111.872l0.724-1.548c0.457-1,0.705-1.643,0.733-1.933
			c0.038-0.286-0.028-0.548-0.152-0.781c-0.143-0.238-0.381-0.434-0.686-0.576c-0.353-0.167-0.676-0.205-0.962-0.11
			c-0.314,0.076-0.562,0.276-0.781,0.59c-0.104,0.162-0.343,0.657-0.743,1.505l-0.762,1.624L43.661,111.872z M48.642,116.739
			l-10.329-4.814l2.048-4.39c0.509-1.105,0.976-1.872,1.404-2.276c0.419-0.419,0.934-0.657,1.553-0.743
			c0.609-0.081,1.209,0.028,1.829,0.309c0.781,0.357,1.314,0.881,1.6,1.576c0.286,0.686,0.295,1.505,0,2.477
			c0.486-0.324,0.934-0.562,1.4-0.705c0.447-0.152,1.19-0.286,2.219-0.4l2.6-0.324l-1.162,2.495l-2.952,0.443
			c-1.048,0.167-1.733,0.3-2.029,0.396c-0.295,0.1-0.533,0.248-0.724,0.428c-0.171,0.186-0.372,0.524-0.6,1l-0.19,0.429l4.314,2.009
			L48.642,116.739z"/>
		<path fill-rule="evenodd" clip-rule="evenodd" fill="#FFFFFF" d="M52.956,98.534l-4.419-0.814l2.829,3.49L52.956,98.534z
			 M59.004,97.253l-1.267,2.124l-2.743-0.491l-2.352,3.919l1.743,2.143l-1.257,2.09l-7.485-9.657l1.248-2.086L59.004,97.253z"/>
		<polygon fill-rule="evenodd" clip-rule="evenodd" fill="#FFFFFF" points="62.251,92.22 53.156,85.363 54.499,83.582 
			63.413,84.429 57.309,79.83 58.604,78.129 67.708,84.986 66.309,86.825 57.556,86.01 63.547,90.52 		"/>
		<path fill-rule="evenodd" clip-rule="evenodd" fill="#FFFFFF" d="M70.299,75.344l-4.152-1.719l2.029,3.996L70.299,75.344z
			 M76.489,75.344l-1.705,1.81l-2.562-1.048l-3.114,3.343l1.257,2.462l-1.667,1.781l-5.324-11.005l1.676-1.781L76.489,75.344z"/>
		<path fill-rule="evenodd" clip-rule="evenodd" fill="#FFFFFF" d="M79.984,66.258l2.096-1.019c0.6,1.152,0.828,2.219,0.657,3.209
			c-0.162,0.981-0.695,1.895-1.59,2.733c-1.104,1.029-2.381,1.505-3.791,1.41c-1.419-0.085-2.733-0.795-3.962-2.104
			c-1.295-1.386-1.943-2.8-1.943-4.238c0-1.433,0.591-2.7,1.743-3.786c1.028-0.948,2.152-1.415,3.343-1.41
			c0.705,0,1.476,0.243,2.276,0.738l-1.295,1.952c-0.495-0.343-1.019-0.49-1.562-0.452c-0.543,0.043-1.038,0.276-1.486,0.69
			c-0.619,0.581-0.914,1.267-0.905,2.066c0.038,0.81,0.524,1.705,1.448,2.695c0.991,1.057,1.867,1.624,2.657,1.719
			c0.81,0.09,1.505-0.148,2.114-0.709c0.448-0.419,0.695-0.919,0.743-1.505C80.594,67.663,80.413,66.991,79.984,66.258z"/>
		<polygon fill-rule="evenodd" clip-rule="evenodd" fill="#FFFFFF" points="86.185,66.525 79.013,57.677 80.804,56.225 
			87.984,65.072 		"/>
		<path fill-rule="evenodd" clip-rule="evenodd" fill="#FFFFFF" d="M88.07,57.701c0.733,1.066,1.533,1.7,2.4,1.895
			c0.876,0.205,1.686,0.043,2.448-0.481c0.743-0.524,1.171-1.229,1.286-2.114c0.095-0.886-0.219-1.862-0.981-2.943
			c-0.752-1.076-1.552-1.705-2.391-1.905c-0.848-0.2-1.647-0.024-2.428,0.524c-0.781,0.543-1.219,1.248-1.324,2.114
			C86.975,55.658,87.309,56.629,88.07,57.701z M86.166,59.125c-0.676-0.953-1.086-1.838-1.257-2.695
			c-0.124-0.624-0.124-1.248-0.028-1.886s0.305-1.205,0.619-1.695c0.409-0.652,1-1.248,1.752-1.771
			c1.371-0.967,2.762-1.314,4.2-1.038c1.429,0.276,2.676,1.186,3.733,2.7c1.057,1.514,1.476,2.981,1.257,4.405
			c-0.219,1.428-1.019,2.628-2.4,3.581c-1.39,0.977-2.781,1.324-4.2,1.048C88.432,61.501,87.204,60.62,86.166,59.125z"/>
		<polygon fill-rule="evenodd" clip-rule="evenodd" fill="#FFFFFF" points="100.166,56.363 94.318,46.601 96.232,45.449 
			104.175,49.572 100.242,43.039 102.061,41.935 107.946,51.701 105.965,52.892 98.156,48.849 102.013,55.268 		"/>
		<path fill-rule="evenodd" clip-rule="evenodd" fill="#FFFFFF" d="M114.032,43.858l-3.21-3.148l0.381,4.467L114.032,43.858z
			 M119.756,46.172l-2.248,1.048l-1.981-1.934l-4.152,1.934l0.248,2.752l-2.209,1.033l-0.81-12.195l2.219-1.024L119.756,46.172z"/>
		<polygon fill-rule="evenodd" clip-rule="evenodd" fill="#FFFFFF" points="121.213,45.691 117.165,35.144 119.327,34.32 
			122.68,43.068 128.003,41.02 128.699,42.82 		"/>
		<path fill-rule="evenodd" clip-rule="evenodd" fill="#FFFFFF" d="M134.87,31.277l0.762,3.152l1.219-0.305
			c0.885-0.219,1.457-0.419,1.724-0.6c0.276-0.2,0.457-0.438,0.552-0.724c0.124-0.295,0.133-0.6,0.038-0.934
			c-0.095-0.4-0.305-0.705-0.59-0.914c-0.305-0.2-0.647-0.286-1.019-0.262c-0.276,0.014-0.819,0.124-1.628,0.319L134.87,31.277z
			 M134.908,41.025l-2.762-11.052l3.581-0.896c1.362-0.333,2.257-0.504,2.705-0.495c0.657,0.01,1.286,0.238,1.848,0.686
			c0.571,0.457,0.962,1.114,1.181,1.99c0.171,0.686,0.19,1.291,0.047,1.81c-0.114,0.524-0.343,0.962-0.657,1.324
			c-0.314,0.357-0.657,0.628-1.019,0.81c-0.505,0.243-1.257,0.476-2.276,0.733l-1.438,0.367l1.028,4.167L134.908,41.025z"/>
		<path fill-rule="evenodd" clip-rule="evenodd" fill="#FFFFFF" d="M149.746,33.363l-2.229-3.915l-0.857,4.4L149.746,33.363z
			 M154.603,37.168l-2.457,0.386l-1.372-2.4l-4.514,0.705l-0.524,2.714l-2.409,0.381l2.581-11.938l2.419-0.386L154.603,37.168z"/>
		<path fill-rule="evenodd" clip-rule="evenodd" fill="#FFFFFF" d="M157.965,30.211l1.695-0.115
			c1.095-0.076,1.771-0.176,2.038-0.276c0.267-0.124,0.476-0.295,0.609-0.533c0.152-0.233,0.209-0.529,0.181-0.867
			c-0.029-0.381-0.143-0.686-0.372-0.91c-0.219-0.219-0.523-0.348-0.895-0.386c-0.19-0.009-0.743,0.01-1.676,0.076l-1.791,0.124
			L157.965,30.211z M156.117,36.93l-0.79-11.367l4.819-0.333c1.219-0.086,2.104-0.048,2.676,0.124
			c0.562,0.162,1.028,0.495,1.4,0.995s0.571,1.081,0.619,1.757c0.066,0.853-0.143,1.571-0.6,2.162
			c-0.457,0.59-1.181,0.99-2.171,1.205c0.524,0.262,0.952,0.547,1.295,0.872c0.333,0.319,0.819,0.909,1.429,1.752l1.543,2.124
			l-2.743,0.19l-1.819-2.367c-0.647-0.843-1.104-1.367-1.333-1.581c-0.229-0.214-0.476-0.357-0.724-0.424
			c-0.248-0.066-0.638-0.085-1.171-0.042l-0.467,0.028l0.324,4.743L156.117,36.93z"/>
		<path fill-rule="evenodd" clip-rule="evenodd" fill="#FFFFFF" d="M173.994,31.868l-1.505-4.248l-1.609,4.19L173.994,31.868z
			 M178.136,36.458l-2.486-0.048l-0.943-2.609l-4.571-0.076l-0.99,2.581l-2.429-0.047l4.609-11.314l2.438,0.048L178.136,36.458z"/>
		<polygon fill-rule="evenodd" clip-rule="evenodd" fill="#FFFFFF" points="184.222,36.968 185.793,25.782 188.079,26.101 
			186.774,35.382 192.431,36.182 192.174,38.087 		"/>
		<path fill-rule="evenodd" clip-rule="evenodd" fill="#FFFFFF" d="M200.87,35.201l-0.667-4.457l-2.39,3.805L200.87,35.201z
			 M204.041,40.497l-2.41-0.515l-0.438-2.738l-4.467-0.953l-1.467,2.343l-2.381-0.509l6.695-10.224l2.381,0.5L204.041,40.497z"/>
		<path fill-rule="evenodd" clip-rule="evenodd" fill="#FFFFFF" d="M214.155,36.811l1.619,0.548
			c1.038,0.362,1.695,0.547,1.991,0.547c0.295,0,0.552-0.085,0.771-0.248c0.219-0.167,0.39-0.41,0.504-0.733
			c0.114-0.362,0.133-0.695,0-0.985c-0.104-0.286-0.333-0.519-0.667-0.7c-0.171-0.086-0.695-0.276-1.581-0.581l-1.695-0.59
			L214.155,36.811z M209.831,42.277l3.714-10.781l4.581,1.581c1.152,0.396,1.952,0.781,2.4,1.157
			c0.467,0.367,0.762,0.857,0.914,1.472c0.143,0.595,0.105,1.209-0.124,1.848c-0.267,0.809-0.733,1.39-1.391,1.752
			c-0.647,0.367-1.476,0.453-2.466,0.271c0.381,0.434,0.657,0.872,0.848,1.3c0.19,0.428,0.4,1.162,0.628,2.171l0.581,2.552
			l-2.591-0.891l-0.743-2.89c-0.286-1.019-0.486-1.686-0.6-1.972c-0.143-0.295-0.314-0.505-0.514-0.671
			c-0.2-0.162-0.552-0.333-1.057-0.5l-0.438-0.152l-1.562,4.495L209.831,42.277z"/>
		<polygon fill-rule="evenodd" clip-rule="evenodd" fill="#FFFFFF" points="220.974,46.292 225.784,35.963 233.431,39.535 
			232.631,41.277 227.06,38.687 225.993,40.982 231.174,43.392 230.345,45.134 225.184,42.725 223.879,45.515 229.631,48.21 
			228.822,49.949 		"/>
		<path fill-rule="evenodd" clip-rule="evenodd" fill="#FFFFFF" d="M237.383,43.734l-3.667,6.6l1.495,0.829
			c0.562,0.314,0.972,0.504,1.257,0.571c0.372,0.105,0.724,0.114,1.047,0.038c0.324-0.076,0.667-0.295,1.067-0.667
			c0.372-0.367,0.791-0.943,1.209-1.714c0.429-0.771,0.676-1.396,0.781-1.886c0.086-0.481,0.067-0.915-0.047-1.276
			c-0.124-0.367-0.333-0.7-0.657-0.981c-0.238-0.224-0.781-0.562-1.59-1.019L237.383,43.734z M236.288,40.935l3.667,2.038
			c0.838,0.457,1.419,0.867,1.79,1.238c0.496,0.496,0.819,1.076,0.981,1.748c0.171,0.671,0.209,1.386,0.067,2.138
			c-0.143,0.762-0.467,1.605-0.981,2.543c-0.457,0.814-0.943,1.462-1.486,1.943c-0.657,0.59-1.324,0.981-2.038,1.171
			c-0.533,0.143-1.152,0.152-1.848,0.019c-0.523-0.105-1.152-0.372-1.895-0.781l-3.781-2.095L236.288,40.935z"/>
		<path fill-rule="evenodd" clip-rule="evenodd" fill="#FFFFFF" d="M247.574,47.449l1.886,1.324l-3.543,5.057
			c-0.552,0.8-0.895,1.343-1.009,1.609c-0.19,0.443-0.219,0.876-0.086,1.319c0.143,0.443,0.467,0.843,1,1.209
			c0.524,0.376,0.991,0.543,1.419,0.509c0.429-0.024,0.771-0.19,1.048-0.466c0.276-0.281,0.676-0.786,1.2-1.524l3.609-5.167
			l1.895,1.324l-3.438,4.905c-0.781,1.128-1.4,1.881-1.819,2.271c-0.429,0.391-0.886,0.648-1.372,0.781
			c-0.505,0.124-1.047,0.124-1.638,0c-0.581-0.138-1.248-0.457-1.981-0.972c-0.895-0.624-1.495-1.2-1.81-1.729
			c-0.314-0.528-0.495-1.047-0.533-1.576c-0.028-0.505,0.038-0.971,0.2-1.39c0.257-0.624,0.752-1.458,1.485-2.505L247.574,47.449z"
			/>
		<path fill-rule="evenodd" clip-rule="evenodd" fill="#FFFFFF" d="M259.002,64.972l1.267,1.953
			c-1.067,0.743-2.105,1.09-3.105,1.047c-1-0.042-1.981-0.457-2.895-1.248c-1.171-0.971-1.791-2.162-1.867-3.585
			c-0.086-1.424,0.438-2.814,1.609-4.186c1.209-1.457,2.534-2.276,3.962-2.447c1.429-0.181,2.743,0.252,3.972,1.276
			c1.066,0.9,1.667,1.943,1.81,3.133c0.076,0.705-0.076,1.496-0.458,2.362l-2.095-1.053c0.276-0.528,0.362-1.071,0.248-1.614
			c-0.104-0.533-0.39-1-0.857-1.39c-0.667-0.538-1.372-0.757-2.162-0.619c-0.8,0.124-1.628,0.705-2.504,1.743
			c-0.924,1.105-1.391,2.048-1.391,2.848c0.019,0.805,0.333,1.476,0.972,2.01c0.476,0.39,1.009,0.581,1.581,0.571
			C257.679,65.753,258.307,65.491,259.002,64.972z"/>
		<path fill-rule="evenodd" clip-rule="evenodd" fill="#FFFFFF" d="M267.783,73.163l1.133,2.038
			c-1.114,0.667-2.171,0.943-3.171,0.824c-0.99-0.114-1.933-0.595-2.819-1.452c-1.076-1.043-1.61-2.281-1.591-3.705
			c0.01-1.419,0.638-2.776,1.886-4.067c1.314-1.362,2.695-2.081,4.143-2.152c1.419-0.085,2.705,0.438,3.867,1.548
			c1,0.966,1.523,2.052,1.59,3.248c0.019,0.709-0.171,1.49-0.628,2.329l-2.019-1.195c0.314-0.519,0.438-1.048,0.362-1.595
			c-0.067-0.533-0.324-1.019-0.752-1.448c-0.619-0.585-1.324-0.843-2.114-0.776c-0.81,0.072-1.676,0.596-2.619,1.567
			c-1,1.038-1.533,1.952-1.571,2.752c-0.048,0.8,0.209,1.486,0.829,2.066c0.428,0.424,0.943,0.648,1.533,0.676
			C266.412,73.849,267.069,73.629,267.783,73.163z"/>
		<polygon fill-rule="evenodd" clip-rule="evenodd" fill="#FFFFFF" points="267.812,79.406 276.269,71.777 277.821,73.496 
			269.354,81.12 		"/>
		<path fill-rule="evenodd" clip-rule="evenodd" fill="#FFFFFF" d="M283.192,78.363l2.515-0.533l1.457,1.943l-3.152-0.314
			L283.192,78.363z M276.745,80.986c-1.038,0.781-1.628,1.6-1.8,2.481c-0.171,0.881,0.019,1.686,0.581,2.419
			c0.543,0.733,1.267,1.133,2.143,1.209c0.876,0.071,1.857-0.291,2.914-1.086c1.038-0.791,1.657-1.6,1.819-2.448
			c0.162-0.848-0.038-1.647-0.6-2.405c-0.581-0.748-1.295-1.176-2.171-1.248C278.764,79.839,277.802,80.201,276.745,80.986z
			 M275.269,79.134c0.924-0.695,1.809-1.143,2.647-1.343c0.619-0.143,1.248-0.171,1.886-0.091c0.647,0.081,1.209,0.267,1.714,0.557
			c0.676,0.381,1.276,0.953,1.838,1.686c1.019,1.343,1.4,2.733,1.181,4.162c-0.229,1.438-1.086,2.714-2.572,3.833
			c-1.466,1.109-2.924,1.571-4.362,1.4c-1.438-0.167-2.657-0.919-3.647-2.262c-1.038-1.353-1.438-2.738-1.209-4.167
			C272.983,81.486,273.802,80.234,275.269,79.134z"/>
		<polygon fill-rule="evenodd" clip-rule="evenodd" fill="#FFFFFF" points="278.65,92.958 288.192,86.753 289.412,88.629 
			285.574,96.715 291.974,92.553 293.135,94.353 283.574,100.543 282.307,98.62 286.088,90.667 279.802,94.749 		"/>
		<path fill-rule="evenodd" clip-rule="evenodd" fill="#FFFFFF" d="M296.611,104.801l-6.762,3.314l0.743,1.534
			c0.276,0.581,0.504,0.971,0.695,1.2c0.257,0.295,0.534,0.5,0.838,0.624c0.305,0.119,0.724,0.147,1.248,0.057
			c0.533-0.086,1.19-0.319,1.981-0.705s1.362-0.757,1.724-1.1c0.362-0.343,0.59-0.705,0.705-1.067
			c0.114-0.362,0.114-0.762,0.019-1.181c-0.076-0.328-0.314-0.9-0.733-1.748L296.611,104.801z M297.345,101.886l1.838,3.771
			c0.409,0.853,0.667,1.533,0.752,2.038c0.124,0.686,0.057,1.362-0.2,2.01c-0.238,0.643-0.628,1.238-1.181,1.781
			c-0.533,0.543-1.295,1.047-2.257,1.514c-0.848,0.41-1.619,0.657-2.333,0.743c-0.867,0.114-1.647,0.047-2.343-0.21
			c-0.524-0.181-1.028-0.533-1.514-1.047c-0.372-0.381-0.733-0.957-1.114-1.719l-1.886-3.89L297.345,101.886z"/>
		<polygon fill-rule="evenodd" clip-rule="evenodd" fill="#FFFFFF" points="292.154,117.524 302.792,113.438 305.812,121.315 
			304.012,122 301.812,116.286 299.459,117.191 301.507,122.515 299.688,123.201 297.659,117.881 294.773,118.981 297.04,124.915 
			295.25,125.61 		"/>
		<path fill-rule="evenodd" clip-rule="evenodd" fill="#FFFFFF" d="M306.992,132l-7.314,1.824l0.41,1.662
			c0.162,0.619,0.314,1.052,0.447,1.324c0.181,0.329,0.41,0.595,0.686,0.771c0.286,0.186,0.686,0.295,1.209,0.319
			c0.523,0.024,1.219-0.067,2.076-0.281c0.848-0.205,1.495-0.448,1.924-0.714c0.419-0.262,0.714-0.562,0.905-0.896
			c0.2-0.343,0.276-0.724,0.248-1.162c0-0.324-0.105-0.943-0.343-1.853L306.992,132z M308.316,129.296l1.009,4.066
			c0.219,0.924,0.343,1.638,0.305,2.157c-0.028,0.69-0.219,1.333-0.59,1.919c-0.391,0.581-0.886,1.086-1.533,1.5
			c-0.648,0.41-1.486,0.752-2.524,1.009c-0.914,0.229-1.733,0.31-2.438,0.243c-0.876-0.071-1.609-0.3-2.238-0.69
			c-0.485-0.291-0.905-0.743-1.276-1.343c-0.276-0.458-0.524-1.091-0.733-1.919l-1.038-4.19L308.316,129.296z"/>
		<polygon fill-rule="evenodd" clip-rule="evenodd" fill="#FFFFFF" points="299.897,143.534 311.154,141.748 312.469,150.077 
			310.564,150.381 309.602,144.324 307.106,144.715 307.992,150.343 306.107,150.648 305.211,145.029 302.164,145.505 
			303.145,151.776 301.25,152.077 		"/>
		<path fill-rule="evenodd" clip-rule="evenodd" fill="#FFFFFF" d="M305.211,153.415l0.391,2.219c-0.743,0.195-1.286,0.5-1.6,0.933
			c-0.333,0.438-0.467,1.005-0.419,1.695c0.066,0.743,0.238,1.281,0.59,1.633c0.343,0.353,0.714,0.514,1.143,0.486
			c0.257-0.019,0.476-0.119,0.667-0.286c0.181-0.171,0.314-0.457,0.429-0.852c0.066-0.276,0.2-0.9,0.362-1.872
			c0.229-1.248,0.543-2.124,0.952-2.652c0.581-0.738,1.324-1.138,2.219-1.2c0.581-0.043,1.143,0.081,1.667,0.371
			c0.533,0.295,0.953,0.738,1.257,1.338c0.305,0.59,0.495,1.324,0.552,2.2c0.095,1.419-0.143,2.514-0.714,3.276
			c-0.59,0.762-1.409,1.2-2.476,1.305l-0.229-2.291c0.59-0.138,0.99-0.381,1.238-0.714c0.219-0.343,0.324-0.829,0.276-1.471
			c-0.057-0.667-0.219-1.171-0.524-1.524c-0.2-0.233-0.438-0.338-0.733-0.314c-0.267,0.019-0.496,0.152-0.657,0.386
			c-0.229,0.31-0.438,1.029-0.629,2.162c-0.181,1.128-0.4,1.967-0.647,2.524c-0.238,0.557-0.6,0.995-1.066,1.338
			c-0.458,0.333-1.057,0.524-1.781,0.581c-0.647,0.038-1.276-0.095-1.867-0.419c-0.6-0.319-1.047-0.8-1.371-1.448
			c-0.324-0.638-0.515-1.457-0.591-2.438c-0.085-1.438,0.152-2.567,0.762-3.381C303.012,154.181,303.954,153.657,305.211,153.415z"
			/>
		<path fill-rule="evenodd" clip-rule="evenodd" fill="#FFFFFF" d="M306.64,171.257l4.229-1.51l-4.171-1.604L306.64,171.257z
			 M302.05,175.4l0.038-2.485l2.619-0.938l0.067-4.576l-2.571-0.981l0.047-2.443l11.305,4.624l-0.038,2.429L302.05,175.4z"/>
		<path fill-rule="evenodd" clip-rule="evenodd" fill="#FFFFFF" d="M305.678,176.571l0.019,2.257
			c-0.752,0.067-1.324,0.286-1.714,0.667c-0.381,0.376-0.609,0.919-0.667,1.61c-0.076,0.743,0.047,1.305,0.333,1.705
			c0.267,0.4,0.61,0.619,1.029,0.657c0.267,0.024,0.495-0.033,0.695-0.176c0.229-0.138,0.4-0.395,0.571-0.781
			c0.124-0.252,0.343-0.848,0.667-1.776c0.41-1.2,0.848-2.024,1.343-2.481c0.695-0.638,1.486-0.919,2.391-0.843
			c0.581,0.052,1.095,0.267,1.581,0.638c0.467,0.371,0.819,0.876,1.028,1.509c0.219,0.643,0.276,1.386,0.209,2.262
			c-0.133,1.419-0.533,2.461-1.238,3.124c-0.686,0.667-1.562,0.962-2.619,0.91l0.124-2.305c0.59-0.043,1.028-0.219,1.314-0.519
			c0.276-0.295,0.448-0.762,0.505-1.405c0.067-0.662-0.029-1.186-0.267-1.586c-0.162-0.252-0.391-0.4-0.686-0.424
			c-0.257-0.024-0.505,0.071-0.724,0.276c-0.267,0.267-0.571,0.948-0.924,2.038c-0.381,1.09-0.724,1.89-1.047,2.395
			c-0.324,0.514-0.743,0.886-1.267,1.152c-0.515,0.257-1.124,0.353-1.857,0.291c-0.647-0.052-1.238-0.291-1.762-0.7
			c-0.552-0.415-0.924-0.962-1.143-1.638c-0.219-0.686-0.286-1.529-0.2-2.514c0.133-1.429,0.562-2.505,1.286-3.214
			C303.393,176.986,304.393,176.609,305.678,176.571z"/>
		<polygon fill-rule="evenodd" clip-rule="evenodd" fill="#FFFFFF" points="300.402,190.143 309.745,191.619 310.269,188.286 
			312.183,188.59 310.754,197.514 308.859,197.219 309.393,193.905 300.04,192.419 		"/>
		<path fill-rule="evenodd" clip-rule="evenodd" fill="#FFFFFF" d="M304.783,201.452l-0.438,1.643
			c-0.286,1.066-0.409,1.743-0.391,2.038c0.02,0.281,0.115,0.533,0.295,0.743c0.181,0.209,0.429,0.357,0.771,0.448
			c0.353,0.1,0.686,0.085,0.981-0.052c0.276-0.138,0.495-0.376,0.657-0.719c0.066-0.181,0.229-0.714,0.467-1.619l0.457-1.733
			L304.783,201.452z M299.04,197.524l11.009,2.947l-1.257,4.681c-0.305,1.176-0.647,2.005-0.981,2.485
			c-0.353,0.477-0.819,0.81-1.4,0.996c-0.6,0.19-1.219,0.195-1.867,0.019c-0.819-0.224-1.438-0.643-1.848-1.276
			c-0.4-0.624-0.562-1.443-0.438-2.438c-0.41,0.395-0.819,0.714-1.238,0.933c-0.419,0.224-1.124,0.491-2.124,0.786l-2.515,0.762
			l0.714-2.657l2.829-0.952c1.01-0.343,1.647-0.586,1.924-0.738c0.286-0.147,0.505-0.333,0.647-0.547
			c0.143-0.21,0.276-0.577,0.41-1.086l0.133-0.457l-4.6-1.233L299.04,197.524z"/>
		<polygon fill-rule="evenodd" clip-rule="evenodd" fill="#FFFFFF" points="295.888,208.81 306.659,212.519 303.916,220.495 
			302.088,219.866 304.078,214.081 301.697,213.252 299.85,218.638 298.021,218.009 299.878,212.628 296.955,211.619 
			294.888,217.624 293.069,216.995 		"/>
		<path fill-rule="evenodd" clip-rule="evenodd" fill="#FFFFFF" d="M295.754,220.104l-0.743,2.124
			c-0.743-0.195-1.362-0.181-1.857,0.047c-0.485,0.219-0.876,0.647-1.171,1.281c-0.324,0.672-0.41,1.243-0.286,1.71
			c0.133,0.476,0.381,0.8,0.762,0.971c0.248,0.119,0.496,0.143,0.714,0.076c0.248-0.066,0.514-0.238,0.8-0.533
			c0.2-0.209,0.619-0.69,1.238-1.453c0.781-0.985,1.496-1.604,2.105-1.867c0.867-0.371,1.714-0.357,2.533,0.024
			c0.524,0.248,0.943,0.619,1.267,1.143c0.324,0.505,0.486,1.095,0.457,1.771c-0.019,0.667-0.219,1.4-0.59,2.195
			c-0.6,1.286-1.343,2.119-2.209,2.515c-0.886,0.381-1.81,0.367-2.791-0.048l0.915-2.128c0.571,0.162,1.038,0.152,1.409-0.029
			c0.362-0.186,0.686-0.571,0.962-1.147c0.286-0.605,0.372-1.128,0.286-1.585c-0.066-0.295-0.219-0.5-0.495-0.629
			c-0.257-0.114-0.505-0.109-0.771,0.014c-0.352,0.157-0.876,0.691-1.581,1.586c-0.714,0.905-1.314,1.538-1.791,1.895
			c-0.486,0.372-1.01,0.586-1.581,0.652c-0.581,0.072-1.181-0.052-1.838-0.352c-0.59-0.276-1.066-0.709-1.428-1.271
			c-0.362-0.571-0.534-1.209-0.505-1.934c0.019-0.714,0.248-1.514,0.667-2.419c0.61-1.305,1.381-2.162,2.305-2.585
			C293.469,219.714,294.535,219.7,295.754,220.104z"/>
		<path fill-rule="evenodd" clip-rule="evenodd" fill="#FFFFFF" d="M88.756,284.028l1.629-1.862l4.8,4.176l-3.838,4.405
			c-0.876,0.047-1.876-0.138-3.076-0.567c-1.181-0.424-2.229-1.029-3.143-1.819c-1.162-1.01-1.952-2.124-2.381-3.353
			c-0.438-1.229-0.495-2.495-0.124-3.771c0.353-1.286,0.991-2.448,1.915-3.509c1-1.157,2.143-1.976,3.4-2.453
			c1.257-0.476,2.562-0.552,3.905-0.229c1.038,0.252,2.066,0.833,3.133,1.752c1.362,1.19,2.181,2.414,2.447,3.657
			c0.276,1.252,0.086,2.476-0.581,3.695l-2.591-1.524c0.324-0.676,0.391-1.362,0.257-2.048c-0.162-0.686-0.562-1.31-1.209-1.871
			c-0.972-0.843-2.01-1.205-3.133-1.091c-1.105,0.124-2.181,0.791-3.257,2.01c-1.133,1.314-1.705,2.552-1.695,3.714
			c0.009,1.162,0.495,2.162,1.428,2.985c0.467,0.396,1.019,0.709,1.648,0.934c0.628,0.224,1.229,0.357,1.79,0.386l1.219-1.4
			L88.756,284.028z"/>
		<path fill-rule="evenodd" clip-rule="evenodd" fill="#FFFFFF" d="M100.794,281.809l2.543,1.524l-4.086,6.805
			c-0.657,1.081-1.038,1.795-1.171,2.157c-0.19,0.571-0.19,1.143,0.029,1.695c0.209,0.557,0.667,1.047,1.381,1.466
			c0.705,0.429,1.333,0.6,1.876,0.524c0.524-0.076,0.972-0.31,1.295-0.69c0.324-0.386,0.791-1.071,1.4-2.066l4.181-6.948
			l2.533,1.524l-3.971,6.6c-0.905,1.509-1.619,2.533-2.124,3.076c-0.514,0.547-1.076,0.914-1.695,1.124
			c-0.638,0.209-1.333,0.257-2.095,0.143c-0.771-0.119-1.647-0.467-2.638-1.067c-1.19-0.714-2.009-1.405-2.466-2.052
			c-0.438-0.643-0.714-1.295-0.81-1.953c-0.095-0.662-0.038-1.276,0.133-1.824c0.257-0.819,0.819-1.933,1.657-3.333L100.794,281.809
			z"/>
		<path fill-rule="evenodd" clip-rule="evenodd" fill="#FFFFFF" d="M116.289,299.79l0.248-5.791l-3.933,4.219L116.289,299.79z
			 M119.003,307.247l-2.934-1.238l0.143-3.572l-5.419-2.29l-2.419,2.595l-2.886-1.224l10.962-11.267l2.886,1.229L119.003,307.247z"
			/>
		<polygon fill-rule="evenodd" clip-rule="evenodd" fill="#FFFFFF" points="123.127,308.347 126.689,296.708 122.537,295.442 
			123.26,293.08 134.375,296.476 133.66,298.837 129.527,297.575 125.975,309.218 		"/>
		<polygon fill-rule="evenodd" clip-rule="evenodd" fill="#FFFFFF" points="132.546,311.08 135.594,296.751 146.194,298.999 
			145.679,301.423 137.984,299.79 137.308,302.971 144.47,304.494 143.946,306.918 136.784,305.39 135.956,309.266 143.946,310.966 
			143.432,313.39 		"/>
		<polygon fill-rule="evenodd" clip-rule="evenodd" fill="#FFFFFF" points="146.632,313.827 147.908,299.237 152.336,299.628 
			154.089,309.809 157.537,300.075 161.965,300.466 160.698,315.061 157.965,314.818 158.956,303.333 155.079,314.565 
			152.231,314.323 150.375,302.58 149.375,314.061 		"/>
		<path fill-rule="evenodd" clip-rule="evenodd" fill="#FFFFFF" d="M172.032,309.285l-2.124-5.381l-1.886,5.448L172.032,309.285z
			 M177.546,314.999l-3.19,0.053l-1.314-3.31l-5.886,0.104l-1.152,3.353l-3.143,0.057l5.438-14.742l3.124-0.058L177.546,314.999z"/>
		<polygon fill-rule="evenodd" clip-rule="evenodd" fill="#FFFFFF" points="179.669,314.961 178.403,300.485 181.365,300.228 
			182.422,312.228 189.727,311.599 189.946,314.057 		"/>
		<path fill-rule="evenodd" clip-rule="evenodd" fill="#FFFFFF" d="M199.289,306.732l-2.953-4.986l-1,5.686L199.289,306.732z
			 M205.622,311.514l-3.143,0.552l-1.829-3.062l-5.781,1.015l-0.619,3.504l-3.086,0.538l3.057-15.414l3.086-0.538L205.622,311.514z"
			/>
		<path fill-rule="evenodd" clip-rule="evenodd" fill="#FFFFFF" d="M206.784,308.218l2.714-0.671l0.485,1.947
			c0.2,0.786,0.286,1.424,0.267,1.914c-0.019,0.491-0.181,0.957-0.467,1.419c-0.286,0.458-0.705,0.853-1.229,1.21l-0.81-1
			c0.505-0.314,0.829-0.667,0.981-1.038s0.171-0.838,0.038-1.386l-1.305,0.328L206.784,308.218z"/>
		<path fill-rule="evenodd" clip-rule="evenodd" fill="#FFFFFF" d="M226.05,299.104l2.99-0.257c0.2,1.662-0.019,3.043-0.676,4.152
			c-0.657,1.114-1.714,1.953-3.171,2.543c-1.809,0.733-3.542,0.714-5.2-0.048c-1.657-0.762-2.924-2.214-3.791-4.362
			c-0.914-2.257-1.048-4.248-0.381-5.962c0.667-1.733,1.943-2.981,3.848-3.748c1.667-0.676,3.219-0.724,4.657-0.162
			c0.848,0.338,1.638,0.985,2.4,1.947l-2.458,1.743c-0.447-0.638-1-1.057-1.676-1.262c-0.676-0.205-1.372-0.157-2.105,0.143
			c-1.009,0.405-1.686,1.105-2.019,2.071c-0.343,0.972-0.162,2.276,0.476,3.886c0.695,1.719,1.496,2.819,2.41,3.295
			c0.914,0.476,1.867,0.514,2.848,0.124c0.743-0.295,1.267-0.786,1.609-1.462S226.222,300.194,226.05,299.104z"/>
		<polygon fill-rule="evenodd" clip-rule="evenodd" fill="#FFFFFF" points="233.498,301.637 232.231,299.132 234.726,297.866 
			235.993,300.361 		"/>
		<path fill-rule="evenodd" clip-rule="evenodd" fill="#FFFFFF" d="M242.631,289.751l-4.6-3.514l1.2,5.638L242.631,289.751z
			 M250.307,291.809l-2.714,1.686l-2.829-2.157l-5,3.124l0.752,3.462l-2.667,1.667l-2.943-15.438l2.657-1.657L250.307,291.809z"/>
		<polygon fill-rule="evenodd" clip-rule="evenodd" fill="#FFFFFF" points="251.936,290.104 250.155,287.923 252.336,286.166 
			254.098,288.342 		"/>
		<path fill-rule="evenodd" clip-rule="evenodd" fill="#FFFFFF" d="M113.775,183.829v8.533h-0.695
			c-0.533-2.238-1.524-3.952-2.962-5.152c-1.457-1.19-3.095-1.781-4.933-1.781c-1.524,0-2.924,0.438-4.209,1.324
			c-1.267,0.886-2.209,2.038-2.8,3.476c-0.762,1.824-1.133,3.857-1.133,6.1c0,2.205,0.276,4.214,0.838,6.023
			c0.552,1.814,1.409,3.171,2.59,4.11c1.181,0.919,2.714,1.386,4.609,1.386c1.533,0,2.943-0.343,4.238-1.015
			c1.286-0.681,2.638-1.843,4.047-3.509v2.124c-1.362,1.443-2.81,2.486-4.295,3.143c-1.486,0.647-3.229,0.962-5.219,0.962
			c-2.619,0-4.943-0.524-6.981-1.571c-2.038-1.057-3.609-2.567-4.714-4.534c-1.104-1.971-1.657-4.076-1.657-6.305
			c0-2.343,0.619-4.566,1.848-6.676c1.229-2.1,2.876-3.733,4.952-4.896c2.085-1.162,4.295-1.743,6.638-1.743
			c1.724,0,3.542,0.372,5.466,1.124c1.105,0.447,1.819,0.657,2.114,0.657c0.381,0,0.733-0.143,1.01-0.428
			c0.286-0.281,0.467-0.733,0.552-1.353H113.775z"/>
		<path fill-rule="evenodd" clip-rule="evenodd" fill="#FFFFFF" d="M130.403,185.248c-2.267,0-3.981,1.138-5.162,3.438
			c-0.952,1.876-1.447,4.581-1.447,8.105c0,4.19,0.743,7.291,2.238,9.295c1.029,1.4,2.467,2.095,4.333,2.095
			c1.248,0,2.286-0.295,3.124-0.905c1.057-0.771,1.896-2.009,2.496-3.695c0.6-1.7,0.895-3.915,0.895-6.643
			c0-3.252-0.305-5.681-0.924-7.291c-0.6-1.614-1.372-2.748-2.324-3.409C132.689,185.571,131.622,185.248,130.403,185.248z
			 M130.184,184.086c3.915-0.143,7.095,1,9.533,3.428c2.458,2.424,3.686,5.462,3.686,9.114c0,3.109-0.905,5.848-2.733,8.229
			c-2.419,3.128-5.848,4.695-10.248,4.695c-4.438,0-7.867-1.495-10.295-4.486c-1.895-2.371-2.857-5.181-2.857-8.424
			c0-3.652,1.238-6.686,3.743-9.119C123.499,185.086,126.537,183.943,130.184,184.086z"/>
		<path fill-rule="evenodd" clip-rule="evenodd" fill="#FFFFFF" d="M153.937,184.386l12.133,15.252v-10.576
			c0-1.491-0.229-2.491-0.657-3.019c-0.571-0.709-1.552-1.052-2.915-1.024v-0.633h8.124v0.633c-1.038,0.133-1.733,0.305-2.095,0.519
			c-0.353,0.219-0.628,0.557-0.838,1.043c-0.2,0.486-0.286,1.31-0.286,2.481v20.49h-0.619l-16.609-20.509v15.686
			c0,1.429,0.324,2.391,0.961,2.891c0.657,0.495,1.391,0.757,2.229,0.757h0.59V209h-8.752v-0.624c1.353-0.014,2.286-0.3,2.819-0.843
			c0.553-0.552,0.81-1.486,0.81-2.805v-17.405l-0.514-0.638c-0.533-0.667-0.981-1.104-1.372-1.31
			c-0.409-0.219-0.981-0.333-1.733-0.357v-0.633H153.937z"/>
		<path fill-rule="evenodd" clip-rule="evenodd" fill="#FFFFFF" d="M181.422,185.762v10.729h1.029c1.695,0,2.962-0.152,3.79-0.462
			c0.848-0.305,1.496-0.867,1.962-1.662c0.486-0.795,0.733-1.843,0.733-3.133c0-1.872-0.457-3.243-1.324-4.138
			c-0.867-0.886-2.295-1.333-4.248-1.333H181.422z M181.422,197.791v6.938c0,1.329,0.076,2.162,0.248,2.509
			c0.171,0.343,0.448,0.614,0.867,0.829c0.41,0.2,1.171,0.31,2.314,0.31V209h-12.59v-0.624c1.133,0,1.905-0.109,2.305-0.329
			c0.41-0.209,0.695-0.481,0.857-0.819c0.171-0.338,0.248-1.171,0.248-2.5v-16.071c0-1.333-0.076-2.162-0.248-2.51
			c-0.162-0.343-0.447-0.619-0.857-0.824c-0.4-0.209-1.181-0.305-2.305-0.305v-0.633h11.438c2.971,0,5.143,0.209,6.533,0.614
			c1.381,0.419,2.495,1.171,3.362,2.286c0.876,1.114,1.324,2.405,1.324,3.905c0,1.81-0.667,3.314-1.971,4.5
			c-0.838,0.757-2.019,1.319-3.514,1.69l5.904,8.333c0.771,1.066,1.333,1.738,1.667,2.004c0.495,0.381,1.066,0.576,1.724,0.614V209
			h-7.752l-7.924-11.209H181.422z"/>
		<path fill-rule="evenodd" clip-rule="evenodd" fill="#FFFFFF" d="M208.498,185.791v10.028h0.485c1.562,0,2.705-0.485,3.4-1.457
			c0.695-0.986,1.152-2.424,1.343-4.333h0.695v12.881h-0.695c-0.152-1.4-0.457-2.557-0.924-3.442c-0.467-0.896-1-1.5-1.619-1.81
			c-0.609-0.31-1.524-0.462-2.686-0.462v6.914c0,1.357,0.047,2.181,0.171,2.481c0.114,0.3,0.333,0.552,0.638,0.748
			c0.314,0.195,0.819,0.291,1.533,0.291h1.467c2.295,0,4.133-0.533,5.514-1.59c1.39-1.057,2.381-2.681,2.99-4.848h0.676l-1.114,7.81
			h-21.238v-0.624h0.81c0.705,0,1.295-0.133,1.724-0.391c0.314-0.167,0.552-0.462,0.714-0.881c0.124-0.295,0.209-1.057,0.209-2.295
			v-16.229c0-1.124-0.038-1.805-0.095-2.067c-0.124-0.428-0.353-0.748-0.676-0.99c-0.448-0.333-1.076-0.505-1.876-0.505h-0.81
			v-0.633h20.562v7.281h-0.695c-0.352-1.781-0.838-3.062-1.485-3.829c-0.619-0.781-1.515-1.352-2.667-1.719
			c-0.676-0.214-1.952-0.329-3.8-0.329H208.498z"/>
		<path fill-rule="evenodd" clip-rule="evenodd" fill="#FFFFFF" d="M232.993,185.762v19.195c0,1.014,0.038,1.643,0.143,1.867
			c0.086,0.238,0.257,0.41,0.486,0.528c0.333,0.186,0.791,0.276,1.419,0.276c2.029,0,3.562-0.69,4.628-2.062
			c1.458-1.871,2.19-4.767,2.19-8.681c0-3.157-0.504-5.681-1.495-7.571c-0.791-1.477-1.8-2.481-3.047-3.01
			C236.459,185.934,235.002,185.752,232.993,185.762z M223.622,209v-0.624h0.819c0.714,0,1.257-0.114,1.648-0.348
			c0.371-0.219,0.657-0.533,0.829-0.924c0.114-0.252,0.162-1.019,0.162-2.295v-16.229c0-1.267-0.066-2.067-0.209-2.372
			c-0.114-0.324-0.381-0.6-0.781-0.833c-0.41-0.233-0.962-0.357-1.648-0.357h-0.819v-0.633h11.019c2.924,0,5.295,0.4,7.085,1.195
			c2.19,0.99,3.838,2.457,4.972,4.447c1.133,1.991,1.695,4.229,1.695,6.733c0,1.733-0.286,3.324-0.838,4.791
			c-0.552,1.448-1.276,2.667-2.162,3.609c-0.876,0.953-1.896,1.714-3.048,2.286c-1.143,0.581-2.571,1.019-4.229,1.333
			c-0.733,0.143-1.895,0.219-3.476,0.219H223.622z"/>
	</g>
</g>
<g id="Modo_de_aislamiento">
</g>
</svg>
